<?xml version="1.0" encoding="utf-8"?>
<!-- Generator: Adobe Illustrator 28.2.0, SVG Export Plug-In . SVG Version: 6.00 Build 0)  -->
<svg version="1.1" id="Layer_1" xmlns="http://www.w3.org/2000/svg" xmlns:xlink="http://www.w3.org/1999/xlink" x="0px" y="0px"
	 viewBox="0 0 1188.3 300.5" style="enable-background:new 0 0 1188.3 300.5;" xml:space="preserve">
<style type="text/css">
	.st0{fill:#FFFFFF;stroke:#FFFFFF;stroke-width:17;stroke-miterlimit:10;}
	.st1{fill:#E22F22;}
</style>
<g id="Layer_2_00000140011102349121755940000014257083015662121148_">
	<polygon class="st0" points="9.2,11.3 9.2,42.2 35.7,42.2 35.7,233.8 68.6,233.8 68.8,42.2 91.6,42.2 94.6,11.3 	"/>
	<polygon class="st0" points="158.8,11.3 158.8,89.5 139.6,89.5 139.6,11.3 108.4,11.3 108.4,233.7 139.6,233.7 139.6,120.4 
		158.8,120.4 158.8,233.7 190,233.7 190,11.3 	"/>
	<polygon class="st0" points="239.8,202.9 239.8,120.4 259.7,120.4 262.7,89.5 239.8,89.5 239.8,42.2 277.4,42.2 280.4,11.3 
		239.8,11.3 208.6,11.3 208.6,16.5 208.6,42.2 208.6,42.2 208.6,202.9 208.6,233.7 208.6,233.8 277.4,233.8 280.4,202.9 	"/>
	<polygon class="st0" points="479,144.9 507.7,144.9 510.6,112.8 479,112.8 479,43.5 518.3,43.5 521.3,11.3 445.7,11.3 445.7,289.1 
		518.3,289.1 521.3,257.2 479,257.2 	"/>
	<polygon class="st0" points="1003.8,257.2 1003.8,144.9 1032.5,144.9 1035.4,112.8 1003.8,112.8 1003.8,43.5 1043.1,43.5 
		1046.1,11.3 1003.8,11.3 974.4,11.3 970.5,11.3 970.5,289.1 1043.2,289.1 1046.1,257.2 	"/>
	<rect x="770.1" y="11.3" class="st0" width="33.3" height="277.8"/>
	<rect x="36" y="256.1" class="st0" width="244.4" height="33.1"/>
	<polygon class="st0" points="749.8,289.1 752.7,257.2 703.5,257.2 703.5,11.3 670.2,11.3 670.2,289.1 	"/>
	<g>
		<path class="st0" d="M574.4,44.2h19.9v0c13.4,0,24.8,15.6,24.8,34.2s-11.1,33.7-24.3,34.1v0h-20.4L574.4,44.2L574.4,44.2z
			 M619.8,289.1h33.5l-35.9-149.3c20.3-10.4,34.5-34,34.5-61.4c0-36.6-25.3-66.4-56.6-67v0h-54.2l0,277.8h33.3l0-143.7h10.5
			L618.8,285L619.8,289.1L619.8,289.1L619.8,289.1z"/>
		<path class="st0" d="M1099.4,44.2h19.9v0c13.4,0,24.8,15.6,24.8,34.2s-11.1,33.7-24.3,34.1v0h-20.4L1099.4,44.2L1099.4,44.2z
			 M1148.6,289.1h29.7l-35.9-149.3c20.3-10.4,34.6-34,34.6-61.4c0-36.6-25.3-66.4-56.6-67v0h-54.2l0,277.8h33.3l0-143.7h10.5
			l34.9,143.7L1148.6,289.1L1148.6,289.1L1148.6,289.1z"/>
	</g>
	<polygon class="st0" points="948.7,289.1 948.7,11.3 916.4,11.3 916.5,193.2 857.5,11.3 857.5,11.3 825.3,11.3 825.3,289.1 
		857.5,289.1 857.5,103.7 918.4,289.1 	"/>
	<path class="st0" d="M401.6,200.9c0,29.9-18.7,55.5-41.4,56.3h-21.1V145.7h20.9C382.9,146.1,401.6,170.7,401.6,200.9 M384.2,78.4
		c0,18.4-11.2,33.9-24.5,34.2h-20.6V44.2h20.3C372.9,44.2,384.2,59.9,384.2,78.4 M399.6,126.5c10.8-12.2,17.5-29.2,17.5-48.1
		c0-37-25.9-67.1-57.7-67.1h-53.6v277.8h53.6c41.4,0,75.1-39.6,75.1-88.2C434.5,169.7,420.6,142.2,399.6,126.5"/>
</g>
<g id="Layer_1-2">
	<polygon points="9.2,11.3 9.2,42.2 35.7,42.2 35.7,233.8 68.6,233.8 68.8,42.2 91.6,42.2 94.6,11.3 	"/>
	<polygon points="158.8,11.3 158.8,89.5 139.6,89.5 139.6,11.3 108.4,11.3 108.4,233.7 139.6,233.7 139.6,120.4 158.8,120.4 
		158.8,233.7 190,233.7 190,11.3 	"/>
	<polygon points="239.8,202.9 239.8,120.4 259.7,120.4 262.7,89.5 239.8,89.5 239.8,42.2 277.4,42.2 280.4,11.3 239.8,11.3 
		208.6,11.3 208.6,16.5 208.6,42.2 208.6,42.2 208.6,202.9 208.6,233.7 208.6,233.8 277.4,233.8 280.4,202.9 	"/>
	<polygon points="479,144.9 507.7,144.9 510.6,112.8 479,112.8 479,43.5 518.3,43.5 521.3,11.3 445.7,11.3 445.7,289.1 518.3,289.1 
		521.3,257.2 479,257.2 	"/>
	<polygon points="1003.8,257.2 1003.8,144.9 1032.5,144.9 1035.4,112.8 1003.8,112.8 1003.8,43.5 1043.1,43.5 1046.1,11.3 
		1003.8,11.3 974.4,11.3 970.5,11.3 970.5,289.1 1043.2,289.1 1046.1,257.2 	"/>
	<rect x="770.1" y="11.3" width="33.3" height="277.8"/>
	<rect x="36" y="256.1" class="st1" width="244.4" height="33.1"/>
	<polygon points="749.8,289.1 752.7,257.2 703.5,257.2 703.5,11.3 670.2,11.3 670.2,289.1 	"/>
	<g>
		<path d="M574.4,44.2h19.9v0c13.4,0,24.8,15.6,24.8,34.2s-11.1,33.7-24.3,34.1v0h-20.4L574.4,44.2L574.4,44.2z M619.8,289.1h33.5
			l-35.9-149.3c20.3-10.4,34.5-34,34.5-61.4c0-36.6-25.3-66.4-56.6-67v0h-54.2l0,277.8h33.3l0-143.7h10.5L618.8,285L619.8,289.1
			L619.8,289.1L619.8,289.1z"/>
		<path d="M1099.4,44.2h19.9v0c13.4,0,24.8,15.6,24.8,34.2s-11.1,33.7-24.3,34.1v0h-20.4L1099.4,44.2L1099.4,44.2z M1148.6,289.1
			h29.7l-35.9-149.3c20.3-10.4,34.6-34,34.6-61.4c0-36.6-25.3-66.4-56.6-67v0h-54.2l0,277.8h33.3l0-143.7h10.5l34.9,143.7
			L1148.6,289.1L1148.6,289.1L1148.6,289.1z"/>
	</g>
	<polygon points="948.7,289.1 948.7,11.3 916.4,11.3 916.5,193.2 857.5,11.3 857.5,11.3 825.3,11.3 825.3,289.1 857.5,289.1 
		857.5,103.7 918.4,289.1 	"/>
	<path d="M401.6,200.9c0,29.9-18.7,55.5-41.4,56.3h-21.1V145.7h20.9C382.9,146.1,401.6,170.7,401.6,200.9 M384.2,78.4
		c0,18.4-11.2,33.9-24.5,34.2h-20.6V44.2h20.3C372.9,44.2,384.2,59.9,384.2,78.4 M399.6,126.5c10.8-12.2,17.5-29.2,17.5-48.1
		c0-37-25.9-67.1-57.7-67.1h-53.6v277.8h53.6c41.4,0,75.1-39.6,75.1-88.2C434.5,169.7,420.6,142.2,399.6,126.5"/>
</g>
</svg>
